<?xml version="1.0" encoding="UTF-8"?>
<svg version="1.1" xmlns="http://www.w3.org/2000/svg" width="64" height="64">
<path d="M0 0 C1.34436713 0.01233811 2.68878334 0.02017395 4.03320312 0.0234375 C14.63526047 0.30005917 14.63526047 0.30005917 18.58203125 3.01171875 C21.44611998 7.07670553 21.37898852 9.97184868 21.0625 14.8125 C21.02189453 15.99489258 21.02189453 15.99489258 20.98046875 17.20117188 C20.91013676 19.13530157 20.80252458 21.06801304 20.6875 23 C21.31140625 23.28746094 21.9353125 23.57492188 22.578125 23.87109375 C25.56933247 25.47194367 26.35755255 26.8746235 27.6875 30 C28.1049609 34.2417009 28.03909265 37.94522205 26.6875 42 C27.23019531 42.47050781 27.77289063 42.94101562 28.33203125 43.42578125 C29.04746094 44.04839844 29.76289062 44.67101563 30.5 45.3125 C31.20769531 45.92738281 31.91539063 46.54226562 32.64453125 47.17578125 C33.31871094 47.77777344 33.99289063 48.37976562 34.6875 49 C35.26371094 49.50660156 35.83992188 50.01320312 36.43359375 50.53515625 C37.6875 52 37.6875 52 37.9375 55.125 C37.6875 58 37.6875 58 36.6875 59 C34.45703125 59.375 34.45703125 59.375 31.6875 59 C29.01171875 56.8125 29.01171875 56.8125 26.375 54 C25.49199219 53.071875 24.60898437 52.14375 23.69921875 51.1875 C23.03535156 50.465625 22.37148438 49.74375 21.6875 49 C21.63851562 50.07121094 21.58953125 51.14242187 21.5390625 52.24609375 C21.46404706 53.64325639 21.3884987 55.0403905 21.3125 56.4375 C21.2815625 57.14455078 21.250625 57.85160156 21.21875 58.58007812 C21.11469371 60.39239188 20.90830108 62.19817988 20.6875 64 C15.65867871 66.51441064 7.79947509 65.31317116 2.20361328 65.35009766 C0.36657016 65.36663591 -1.47040918 65.39389795 -3.30712891 65.43212891 C-5.96029936 65.48705503 -8.61196163 65.5087963 -11.265625 65.5234375 C-12.08146057 65.54610687 -12.89729614 65.56877625 -13.737854 65.59213257 C-18.29503701 65.57534988 -21.78653043 65.11541417 -25.2303772 61.74801636 C-27.55677802 57.99004482 -27.26978436 53.69587514 -27.28515625 49.3984375 C-27.30275497 48.36619049 -27.3203537 47.33394348 -27.33848572 46.27041626 C-27.36444879 44.08682032 -27.37436902 41.90298288 -27.36938477 39.71923828 C-27.37495178 36.40371896 -27.47082301 33.09894826 -27.57226562 29.78515625 C-27.81954268 12.56228885 -27.81954268 12.56228885 -23.07962036 6.4515686 C-16.48193592 -0.31871904 -8.92828906 -0.47383549 0 0 Z M-13.3125 4 C-13.6425 7.3 -13.9725 10.6 -14.3125 14 C-18.7675 14.495 -18.7675 14.495 -23.3125 15 C-23.3125 29.19 -23.3125 43.38 -23.3125 58 C-10.7725 58 1.7675 58 14.6875 58 C14.6875 55.03 14.6875 52.06 14.6875 49 C14.06101563 48.79503906 13.43453125 48.59007812 12.7890625 48.37890625 C11.97179688 48.10949219 11.15453125 47.84007812 10.3125 47.5625 C9.50039063 47.29566406 8.68828125 47.02882812 7.8515625 46.75390625 C5.6875 46 5.6875 46 3.6875 45 C1.47611145 45.08811445 -0.73292185 45.2429784 -2.9375 45.4375 C-4.72027344 45.59025391 -4.72027344 45.59025391 -6.5390625 45.74609375 C-7.45429688 45.82988281 -8.36953125 45.91367187 -9.3125 46 C-9.3125 45.01 -9.3125 44.02 -9.3125 43 C-5.6825 43 -2.0525 43 1.6875 43 C1.3575 42.01 1.0275 41.02 0.6875 40 C-0.7665625 39.814375 -0.7665625 39.814375 -2.25 39.625 C-3.260625 39.41875 -4.27125 39.2125 -5.3125 39 C-5.6425 38.34 -5.9725 37.68 -6.3125 37 C-4.3325 37 -2.3525 37 -0.3125 37 C0.12136092 33.12202338 0.12136092 33.12202338 -1.8125 31.25 C-2.3075 30.8375 -2.8025 30.425 -3.3125 30 C-1.9925 30 -0.6725 30 0.6875 30 C1.3475 28.68 2.0075 27.36 2.6875 26 C1.553125 25.87625 0.41875 25.7525 -0.75 25.625 C-1.925625 25.41875 -3.10125 25.2125 -4.3125 25 C-4.6425 24.34 -4.9725 23.68 -5.3125 23 C-4.5390625 23.02320312 -3.765625 23.04640625 -2.96875 23.0703125 C3.32075438 23.17928906 8.67090199 22.85126093 14.6875 21 C14.71434679 18.35409986 14.73426357 15.70846904 14.75 13.0625 C14.76256836 11.93038086 14.76256836 11.93038086 14.77539062 10.77539062 C14.78402441 8.85005687 14.73974333 6.92464419 14.6875 5 C13.61720871 3.70454552 13.61720871 3.70454552 11.09545898 3.88647461 C9.96954346 3.89171143 8.84362793 3.89694824 7.68359375 3.90234375 C5.86118164 3.90717773 5.86118164 3.90717773 4.00195312 3.91210938 C2.72255859 3.92048828 1.44316406 3.92886719 0.125 3.9375 C-1.79989258 3.94426758 -1.79989258 3.94426758 -3.76367188 3.95117188 C-6.94666022 3.96300455 -10.12955762 3.97948932 -13.3125 4 Z M-17.3125 7 C-18.67077971 8.64639965 -20.00504251 10.31295807 -21.3125 12 C-19.6625 12 -18.0125 12 -16.3125 12 C-16.3125 10.35 -16.3125 8.7 -16.3125 7 C-16.6425 7 -16.9725 7 -17.3125 7 Z M9 28.6875 C6.40601633 31.28148367 5.6875 32.35351261 5.6875 36 C7.08691201 39.53968921 8.1734948 40.73182337 11.5625 42.5 C14.69623052 43.28797845 14.69623052 43.28797845 17.4375 41.8125 C19.88836335 40.02368613 19.88836335 40.02368613 21.6875 37 C21.603564 33.05500787 21.15381678 31.47891993 18.375 28.625 C14.65759307 26.37726557 12.68058793 26.37643316 9 28.6875 Z M28.6875 49 C28.36210431 52.10055631 28.36210431 52.10055631 30.5625 54.1875 C32.47561334 56.21631554 32.47561334 56.21631554 34.6875 56 C33.29417426 52.63279613 31.7085714 51.0140476 28.6875 49 Z M16.6875 59 C16.3575 59.33 16.0275 59.66 15.6875 60 C13.09596893 60.15996166 10.5279798 60.25938697 7.93359375 60.31640625 C6.77042381 60.3475779 6.77042381 60.3475779 5.58375549 60.37937927 C3.09759692 60.44495802 0.61132955 60.50379799 -1.875 60.5625 C-3.55665204 60.60567733 -5.23829294 60.64929136 -6.91992188 60.69335938 C-11.05066871 60.80064779 -15.18152536 60.90189132 -19.3125 61 C-19.3125 61.33 -19.3125 61.66 -19.3125 62 C-7.1025 62 5.1075 62 17.6875 62 C17.1925 60.515 17.1925 60.515 16.6875 59 Z " fill="#000000" transform="translate(26.3125,-1)"/>
<path d="M0 0 C6.27 0 12.54 0 19 0 C19 0.99 19 1.98 19 3 C12.73 3 6.46 3 0 3 C0 2.01 0 1.02 0 0 Z " fill="#000000" transform="translate(6,49)"/>
<path d="M0 0 C5.28 0 10.56 0 16 0 C16 0.99 16 1.98 16 3 C10.72 3 5.44 3 0 3 C0 2.01 0 1.02 0 0 Z " fill="#000000" transform="translate(15,15)"/>
<path d="M0 0 C4.62 0 9.24 0 14 0 C13.67 0.99 13.34 1.98 13 3 C8.71 3 4.42 3 0 3 C0 2.01 0 1.02 0 0 Z " fill="#000000" transform="translate(6,22)"/>
<path d="M0 0 C3.63 0 7.26 0 11 0 C11.33 0.99 11.66 1.98 12 3 C7.71 3 3.42 3 -1 3 C-0.67 2.01 -0.34 1.02 0 0 Z " fill="#000000" transform="translate(26,8)"/>
<path d="M0 0 C3.96 0 7.92 0 12 0 C11.67 0.99 11.34 1.98 11 3 C7.37 3 3.74 3 0 3 C0 2.01 0 1.02 0 0 Z " fill="#000000" transform="translate(6,36)"/>
<path d="M0 0 C2.64 0 5.28 0 8 0 C8.33 0.99 8.66 1.98 9 3 C6.03 3 3.06 3 0 3 C0 2.01 0 1.02 0 0 Z " fill="#000000" transform="translate(29,49)"/>
<path d="M0 0 C2.64 0 5.28 0 8 0 C8.33 0.99 8.66 1.98 9 3 C6.03 3 3.06 3 0 3 C0 2.01 0 1.02 0 0 Z " fill="#000000" transform="translate(6,42)"/>
<path d="M0 0 C2.64 0 5.28 0 8 0 C8 0.99 8 1.98 8 3 C5.69 3 3.38 3 1 3 C0.67 2.01 0.34 1.02 0 0 Z " fill="#000000" transform="translate(13,29)"/>
<path d="M0 0 C2.31 0 4.62 0 7 0 C7 0.99 7 1.98 7 3 C4.69 3 2.38 3 0 3 C0 2.01 0 1.02 0 0 Z " fill="#000000" transform="translate(6,15)"/>
<path d="M0 0 C1.98 0 3.96 0 6 0 C6 0.99 6 1.98 6 3 C4.02 3 2.04 3 0 3 C0 2.01 0 1.02 0 0 Z " fill="#000000" transform="translate(17,8)"/>
<path d="M0 0 C1.98 0 3.96 0 6 0 C5.67 0.99 5.34 1.98 5 3 C3.35 3 1.7 3 0 3 C0 2.01 0 1.02 0 0 Z " fill="#000000" transform="translate(6,29)"/>
<path d="M0 0 C1.65 0 3.3 0 5 0 C5 0.99 5 1.98 5 3 C3.35 3 1.7 3 0 3 C0 2.01 0 1.02 0 0 Z " fill="#000000" transform="translate(33,15)"/>
</svg>
